HIERARCHY
ROOT Hips
{
  OFFSET 0.000000 0.000000 0.000000
  CHANNELS 6 Xposition Yposition Zposition Xrotation Yrotation Zrotation
  JOINT Spine
  {
    OFFSET 1.471354 23.290033 -6.106481
    CHANNELS 3 Xrotation Yrotation Zrotation
    JOINT Chest
    {
      OFFSET 1.471354 23.290033 -6.106481
      CHANNELS 3 Xrotation Yrotation Zrotation
      JOINT Neck
      {
        OFFSET -2.554482 8.383535 -1.440578
        CHANNELS 3 Xrotation Yrotation Zrotation
        JOINT Head
        {
          OFFSET -6.488949 6.596687 -1.313551
          CHANNELS 3 Xrotation Yrotation Zrotation
          End Site
          {
            OFFSET -1.946685 1.979006 -0.394065
          }
        }
      }
      JOINT LeftShoulder
      {
        OFFSET 4.445460 -1.571870 -16.227993
        CHANNELS 3 Xrotation Yrotation Zrotation
        JOINT LeftArm
        {
          OFFSET -5.835221 -22.551993 -2.146173
          CHANNELS 3 Xrotation Yrotation Zrotation
          JOINT LeftForeArm
          {
            OFFSET -12.437178 -19.553858 5.324733
            CHANNELS 3 Xrotation Yrotation Zrotation
            JOINT LeftHand
            {
              OFFSET -3.243800 -4.801626 -2.197453
              CHANNELS 3 Xrotation Yrotation Zrotation
              End Site
              {
                OFFSET -0.973140 -1.440488 -0.659236
              }
            }
          }
        }
      }
      JOINT RightShoulder
      {
        OFFSET -4.445460 1.571870 16.227993
        CHANNELS 3 Xrotation Yrotation Zrotation
        JOINT RightArm
        {
          OFFSET 15.000000 -5.000000 0.000000
          CHANNELS 3 Xrotation Yrotation Zrotation
          JOINT RightForeArm
          {
            OFFSET 12.000000 -8.000000 0.000000
            CHANNELS 3 Xrotation Yrotation Zrotation
            JOINT RightHand
            {
              OFFSET 5.000000 -5.000000 0.000000
              CHANNELS 3 Xrotation Yrotation Zrotation
              End Site
              {
                OFFSET 1.500000 -1.500000 0.000000
              }
            }
          }
        }
      }
    }
  }
  JOINT LeftUpLeg
  {
    OFFSET 5.983835 -1.012600 -8.641845
    CHANNELS 3 Xrotation Yrotation Zrotation
    JOINT LeftLeg
    {
      OFFSET 2.259026 -41.160902 2.325652
      CHANNELS 3 Xrotation Yrotation Zrotation
      JOINT LeftFoot
      {
        OFFSET 27.481258 -16.640986 16.500056
        CHANNELS 3 Xrotation Yrotation Zrotation
        End Site
        {
          OFFSET 8.244378 -4.992296 4.950017
        }
      }
    }
  }
  JOINT RightUpLeg
  {
    OFFSET -5.983835 1.012600 8.641845
    CHANNELS 3 Xrotation Yrotation Zrotation
    JOINT RightLeg
    {
      OFFSET -9.973435 -38.659740 8.660418
      CHANNELS 3 Xrotation Yrotation Zrotation
      JOINT RightFoot
      {
        OFFSET -10.566743 -41.878031 2.772515
        CHANNELS 3 Xrotation Yrotation Zrotation
        End Site
        {
          OFFSET -3.170023 -12.563409 0.831755
        }
      }
    }
  }
}
MOTION
Frames: 12
Frame Time: 0.083333
0.000000 60.000000 0.000000 0.128820 -0.029334 -0.086078 0.000000 0.000000 0.000000 -0.104655 0.035151 0.088458 -0.023670 -0.020779 -0.071210 2.500000 0.000000 0.000000 0.000000 0.000000 0.000000 0.000000 0.000000 0.000000 0.000000 0.000000 0.000000 0.000000 0.000000 0.000000 0.000000 0.000000 0.000000 0.000000 0.000000 0.000000 0.000000 0.000000 0.000000 0.000000 0.000000 0.000000 0.000000 0.000000 0.000000 0.000000 0.000000 0.000000 0.000000 0.000000 0.000000 0.000000 0.000000 0.000000 0.000000 0.000000 0.000000 0.000000 0.000000 0.000000
0.000000 60.000000 0.000000 0.139535 -0.033185 -0.099050 0.000000 0.000000 0.000000 -0.113212 0.038955 0.098888 -0.025692 -0.022518 -0.076937 2.129515 0.000000 0.000000 0.240559 -0.151246 0.572554 0.015071 0.129508 -0.487959 -55.411875 3.701432 -102.042055 0.000000 0.000000 0.000000 0.000000 0.000000 0.000000 0.000000 0.000000 0.000000 0.000000 0.000000 0.000000 0.000000 0.000000 0.000000 -0.182001 -0.040412 -0.912454 1.719250 1.058978 -2.444115 0.000000 0.000000 0.000000 0.114136 0.173273 1.109189 -0.272269 0.034991 0.428773 0.000000 0.000000 0.000000
0.000000 60.000000 0.000000 0.139941 -0.033272 -0.099306 0.000000 0.000000 0.000000 -0.113498 0.039042 0.098952 -0.025784 -0.022576 -0.077125 5.000000 0.000000 0.000000 1.343478 -0.868772 3.433982 0.287002 0.714553 -2.816291 -49.476327 10.296611 -97.797298 0.000000 0.000000 0.000000 0.000000 0.000000 0.000000 0.000000 0.000000 0.000000 0.000000 0.000000 0.000000 0.000000 0.000000 0.000000 -0.882892 -0.169519 -4.738021 8.967524 6.294467 -12.125817 0.000000 0.000000 0.000000 0.699870 0.888728 5.888808 -1.685902 0.333327 2.426539 0.000000 0.000000 0.000000
0.000000 60.000000 0.000000 0.728849 -0.182914 -0.557056 0.000000 0.000000 0.000000 -0.588866 0.208725 0.530231 -0.135169 -0.117506 -0.399304 5.000000 0.000000 0.000000 3.349405 -2.231764 9.184353 1.838680 1.541342 -7.127152 -45.050517 15.075841 -90.876441 0.000000 0.000000 0.000000 0.000000 0.000000 0.000000 0.000000 0.000000 0.000000 0.000000 0.000000 0.000000 0.000000 0.000000 0.000000 -1.693120 -0.252500 -10.705860 19.288791 16.327096 -23.686390 0.000000 0.000000 0.000000 1.836108 1.858052 13.043625 -4.650932 1.322137 6.367312 0.000000 0.000000 0.000000
0.000000 60.000000 0.000000 1.766838 -0.474760 -1.481898 0.000000 0.000000 0.000000 -1.409305 0.517084 1.274585 -0.335659 -0.284626 -0.951348 5.000000 0.000000 0.000000 4.143432 -2.903682 12.619383 5.679242 0.940401 -8.775192 -7.023270 22.651264 -69.870313 0.000000 0.000000 0.000000 0.000000 0.000000 0.000000 0.000000 0.000000 0.000000 0.000000 0.000000 0.000000 0.000000 0.000000 0.000000 -0.519413 0.073681 -11.474116 14.082382 20.037023 -10.491502 0.000000 0.000000 0.000000 2.450724 1.120098 10.676092 -6.677635 2.940223 9.345918 0.000000 0.000000 0.000000
0.000000 60.000000 0.000000 2.037855 -0.548249 -1.723498 0.000000 0.000000 0.000000 -1.557557 0.545421 1.031850 -0.428004 -0.345788 -1.047332 5.000000 0.000000 0.000000 5.325891 -3.765449 16.029218 9.672980 -0.128138 -10.837279 9.867521 18.916652 -60.366626 0.000000 0.000000 0.000000 0.000000 0.000000 0.000000 0.000000 0.000000 0.000000 0.000000 0.000000 0.000000 0.000000 0.000000 0.000000 0.694161 -0.008085 -18.852799 10.734049 20.044528 -5.178286 0.000000 0.000000 0.000000 2.959293 0.551364 9.395292 -8.216560 4.295006 13.687527 0.000000 0.000000 0.000000
0.000000 60.000000 0.000000 2.378347 -0.345737 -0.816060 0.000000 0.000000 0.000000 -1.770049 0.329877 -0.341688 -0.608964 -0.556779 -1.272005 5.000000 0.000000 0.000000 5.581245 -4.410043 20.205096 10.659721 -0.612131 -14.259407 36.674128 7.812205 -47.959937 0.000000 0.000000 0.000000 0.000000 0.000000 0.000000 0.000000 0.000000 0.000000 25.433542 -29.970649 -122.061040 0.000000 0.000000 0.000000 2.352558 -0.068813 -27.413698 11.282327 19.508132 -11.418937 0.000000 0.000000 0.000000 3.389487 0.806174 11.663754 -9.447817 5.331102 12.961386 0.000000 0.000000 0.000000
0.000000 60.000000 0.000000 2.451351 -0.088218 0.271650 0.000000 0.000000 0.000000 -1.920210 0.052742 -1.581380 -0.849404 -1.036224 -1.687760 5.000000 0.000000 0.000000 4.643788 -4.488649 23.077395 13.036617 -2.401000 -17.029281 42.351864 5.497568 -46.813990 0.000000 0.000000 0.000000 0.000000 0.000000 0.000000 0.000000 0.000000 0.000000 12.283155 -14.719474 -122.893797 0.000000 0.000000 0.000000 1.800820 -0.480361 -31.570130 16.920136 19.238651 -26.718739 0.000000 0.000000 0.000000 0.916806 2.844288 17.818355 -8.444963 5.082804 6.680362 0.000000 0.000000 0.000000
0.000000 60.000000 0.000000 2.502030 0.086915 1.029372 0.000000 0.000000 0.000000 -2.019033 -0.087808 -2.226216 -1.034920 -1.381932 -2.026879 5.000000 0.000000 0.000000 3.492138 -4.265378 24.866643 14.159262 -3.672352 -18.914592 12.493461 -3.746529 -23.089644 0.000000 0.000000 0.000000 0.000000 0.000000 0.000000 0.000000 0.000000 0.000000 20.032760 -22.935661 -124.387132 0.000000 0.000000 0.000000 0.300184 -0.734833 -33.880883 18.798123 22.242971 -32.779196 0.000000 0.000000 0.000000 0.319548 3.311566 20.337732 -6.992674 4.310656 9.266076 0.000000 0.000000 0.000000
0.000000 60.000000 0.000000 3.439635 0.141080 1.553818 0.000000 0.000000 0.000000 -2.925599 -0.086415 -2.733859 -0.767615 -1.024368 -2.040971 5.000000 0.000000 0.000000 2.206388 -4.003635 26.148837 13.178904 -3.556393 -20.420399 0.000000 0.000000 0.000000 0.000000 0.000000 0.000000 0.000000 0.000000 0.000000 0.000000 0.000000 0.000000 -92.078662 15.585038 87.624590 0.000000 0.000000 0.000000 -1.525057 -1.056433 -33.607816 18.848586 24.068294 -32.209055 0.000000 0.000000 0.000000 0.022006 3.560906 22.201251 -6.047371 3.582335 11.802371 0.000000 0.000000 0.000000
0.000000 60.000000 0.000000 4.190740 0.189008 2.020481 0.000000 0.000000 0.000000 -3.512798 -0.026059 -3.142319 -0.513373 -0.521622 -1.894966 5.000000 0.000000 0.000000 1.524244 -3.762410 25.265320 11.908438 -2.865776 -19.953414 2.407820 21.215575 -65.464670 0.000000 0.000000 0.000000 0.000000 0.000000 0.000000 0.000000 0.000000 0.000000 -1.225421 -0.020172 -117.315120 0.000000 0.000000 0.000000 -4.030340 -1.278666 -31.455479 19.444277 24.758699 -30.720584 0.000000 0.000000 0.000000 -0.132523 3.678354 24.448286 -5.714856 3.687520 15.700361 0.000000 0.000000 0.000000
0.000000 60.000000 0.000000 5.227948 0.095265 1.964972 0.000000 0.000000 0.000000 -4.306748 0.178363 -3.016312 -0.460211 -0.233618 -1.822667 5.000000 0.000000 0.000000 2.545086 -3.702920 20.850733 9.855085 -1.343391 -16.405366 -5.737602 22.953623 -71.689513 0.000000 0.000000 0.000000 0.000000 0.000000 0.000000 0.000000 0.000000 0.000000 0.000000 0.000000 0.000000 0.000000 0.000000 0.000000 -4.499233 -1.067761 -27.967279 18.595246 24.787210 -27.451179 0.000000 0.000000 0.000000 0.426380 2.975999 22.876715 -6.597733 5.447271 21.142275 0.000000 0.000000 0.000000
